<svg xmlns="http://www.w3.org/2000/svg" xmlns:svg="http://www.w3.org/2000/svg" xmlns:xlink="http://www.w3.org/1999/xlink" version="1.0" height="536pt" width="625pt" viewBox="325 2 633 542" ><defs><style type="text/css">
            @font-face {
                font-family: 'noto_regular';
                src: url('https://app.creately.com/diagram/assets/fonts/noto/noto-regular.woff') format('woff'),
                     url('https://app.creately.com/diagram/assets/fonts/noto/noto-regular.woff2') format('woff2');
                font-weight: normal;
                font-style: normal;
            }
        p {
            margin: 0;
        }
        </style></defs><defs><style>
            span{ display: inline-block; }
        </style></defs><g id="1ti4s6pg55"><g transform="translate(330 45)"><path d="M 15,30 L 15,30 L 15.000000000000002,30 A 15 15 0 0 1 0 15.000000000000002 L 0,15 L 0,15.000000000000002 A 15 15 0 0 1 15.000000000000002 0 L 55,0 L 55,0 L 55,0 A 15 15 0 0 1 70 15 L 70,15 L 70,15 A 15 15 0 0 1 55 30 L 15,30 Z" fill="rgba(249,104,114,1)" stroke="#e85861" stroke-width="1" stroke-linecap="round" stroke-linejoin="round"/></g><g transform="translate(349.5, 50.5) rotate(0, 15.5, 9.5)" width="31" height="19"><text text-decoration="none" x="1" fill="rgb(255, 255, 255)" font-size="10pt" font-family="Lato"  y="17">Start</text><text text-decoration="none" x="30" fill="#4b4b4b" font-size="10pt" font-family="noto_regular"  y="17"></text></g></g><g id="vs0st9bxm0"><g transform="translate(500 5)"><path d="M 80.0000011920929,0 L 0,55.00000052154064 L 80.0000011920929,110.00000104308128 L 160.0000023841858,55.00000052154064 L 80.0000011920929,0 Z" fill="rgba(81,198,155,1)" stroke="#40b789" stroke-width="1" stroke-linecap="round" stroke-linejoin="round"/></g><g transform="translate(501.0000011920929, 42.50000052154064) rotate(0, 79, 17.5)" width="158" height="35"><text text-decoration="none" x="7" fill="rgb(255, 255, 255)" font-size="10pt" font-family="Lato"  y="14">Does&#160;</text><text text-decoration="none" x="40" fill="rgb(255, 255, 255)" font-size="10pt" font-family="Lato"  y="14">the&#160;</text><text text-decoration="none" x="63" fill="rgb(255, 255, 255)" font-size="10pt" font-family="Lato"  y="14">database&#160;</text><text text-decoration="none" x="121" fill="rgb(255, 255, 255)" font-size="10pt" font-family="Lato"  y="14">need&#160;</text><text text-decoration="none" x="52.5" fill="rgb(255, 255, 255)" font-size="10pt" font-family="Lato"  y="36">content?</text><text text-decoration="none" x="105.5" fill="#4b4b4b" font-size="10pt" font-family="noto_regular"  y="36"></text></g></g><g id="68jzkaiplw"><g transform="translate(515 175)"><path d="M 67.5000011920929,0 L 0,47.500001192092896 L 67.5000011920929,95.00000238418579 L 135.0000023841858,47.500001192092896 L 67.5000011920929,0 Z" fill="rgba(81,198,155,1)" stroke="#40b789" stroke-width="1" stroke-linecap="round" stroke-linejoin="round"/></g><g transform="translate(526.0000011920929, 205.0000011920929) rotate(0, 56.5, 17.5)" width="113" height="35"><text text-decoration="none" x="5" fill="rgb(255, 255, 255)" font-size="10pt" font-family="Lato"  y="14">Do&#160;</text><text text-decoration="none" x="25" fill="rgb(255, 255, 255)" font-size="10pt" font-family="Lato"  y="14">you&#160;</text><text text-decoration="none" x="51" fill="rgb(255, 255, 255)" font-size="10pt" font-family="Lato"  y="14">have&#160;</text><text text-decoration="none" x="83" fill="rgb(255, 255, 255)" font-size="10pt" font-family="Lato"  y="14">new&#160;</text><text text-decoration="none" x="30" fill="rgb(255, 255, 255)" font-size="10pt" font-family="Lato"  y="36">content?</text><text text-decoration="none" x="83" fill="#4b4b4b" font-size="10pt" font-family="noto_regular"  y="36"></text></g></g><g id="2fi1xp5cgj"><g transform="translate(355 200)"><rect x="0" y="0" width="101" height="51" fill="rgba(62,139,185,1)" stroke="#367da5" stroke-width="1" stroke-linecap="round" stroke-linejoin="round"/></g><g transform="translate(367.5, 216) rotate(0, 38, 9.5)" width="76" height="19"><text text-decoration="none" x="2.5" fill="rgb(255, 255, 255)" font-size="10pt" font-family="Lato"  y="17">Get&#160;</text><text text-decoration="none" x="26.5" fill="rgb(255, 255, 255)" font-size="10pt" font-family="Lato"  y="17">content</text><text text-decoration="none" x="73.5" fill="#4b4b4b" font-size="10pt" font-family="noto_regular"  y="17"></text></g></g><g id="a1vhxn28r2"><g transform="translate(510 320)"><path d="M 75,0 L 0,60.00000339746475 L 75,120.0000067949295 L 150,60.00000339746475 L 75,0 Z" fill="rgba(81,198,155,1)" stroke="#40b789" stroke-width="1" stroke-linecap="round" stroke-linejoin="round"/></g><g transform="translate(511.5, 362.50000339746475) rotate(0, 73.5, 17.5)" width="147" height="35"><text text-decoration="none" x="6.5" fill="rgb(255, 255, 255)" font-size="10pt" font-family="Lato"  y="14">Has&#160;</text><text text-decoration="none" x="32.5" fill="rgb(255, 255, 255)" font-size="10pt" font-family="Lato"  y="14">it&#160;</text><text text-decoration="none" x="43.5" fill="rgb(255, 255, 255)" font-size="10pt" font-family="Lato"  y="14">been&#160;</text><text text-decoration="none" x="76.5" fill="rgb(255, 255, 255)" font-size="10pt" font-family="Lato"  y="14">edited&#160;</text><text text-decoration="none" x="117.5" fill="rgb(255, 255, 255)" font-size="10pt" font-family="Lato"  y="14">and&#160;</text><text text-decoration="none" x="41.5" fill="rgb(255, 255, 255)" font-size="10pt" font-family="Lato"  y="36">approved?</text><text text-decoration="none" x="105.5" fill="#4b4b4b" font-size="10pt" font-family="noto_regular"  y="36"></text></g></g><g id="4wnfq6f4at"><g transform="translate(720 350)"><rect x="0" y="0" width="104.9999988079071" height="61.59983825683594" fill="rgba(62,139,185,1)" stroke="#367da5" stroke-width="1" stroke-linecap="round" stroke-linejoin="round"/></g><g transform="translate(733.4999994039536, 355.29991912841797) rotate(0, 39, 25.5)" width="78" height="51"><text text-decoration="none" x="2.5" fill="rgb(255, 255, 255)" font-size="10pt" font-family="Lato"  y="14">Edit&#160;</text><text text-decoration="none" x="28.5" fill="rgb(255, 255, 255)" font-size="10pt" font-family="Lato"  y="14">content&#160;</text><text text-decoration="none" x="11" fill="rgb(255, 255, 255)" font-size="10pt" font-family="Lato"  y="33">and&#160;</text><text text-decoration="none" x="37" fill="rgb(255, 255, 255)" font-size="10pt" font-family="Lato"  y="33">get&#160;</text><text text-decoration="none" x="59" fill="rgb(255, 255, 255)" font-size="10pt" font-family="Lato"  y="33">it&#160;</text><text text-decoration="none" x="10" fill="rgb(255, 255, 255)" font-size="10pt" font-family="Lato"  y="55">approved</text><text text-decoration="none" x="68" fill="#4b4b4b" font-size="10pt" font-family="noto_regular"  y="55"></text></g></g><g id="lcdroby3ph"><g transform="translate(720 490)"><rect x="0" y="0" width="101" height="51" fill="rgba(62,139,185,1)" stroke="#367da5" stroke-width="1" stroke-linecap="round" stroke-linejoin="round"/></g><g transform="translate(739, 498) rotate(0, 31.5, 17.5)" width="63" height="35"><text text-decoration="none" x="2" fill="rgb(255, 255, 255)" font-size="10pt" font-family="Lato"  y="14">Upload&#160;</text><text text-decoration="none" x="48" fill="rgb(255, 255, 255)" font-size="10pt" font-family="Lato"  y="14">to&#160;</text><text text-decoration="none" x="13.5" fill="rgb(255, 255, 255)" font-size="10pt" font-family="Lato"  y="36">portal</text><text text-decoration="none" x="49.5" fill="#4b4b4b" font-size="10pt" font-family="noto_regular"  y="36"></text></g></g><g id="1quzw5q9l0"><g><path d="M 770,410 L 770,490" fill="none" stroke="#367da5" stroke-width="1.5" stroke-linecap="round" stroke-linejoin="round"/><path d="M 770,490 L 775.75,481.30434782608694 L 764.25,481.30434782608694 Z" fill="rgb(54,125,165)" stroke="#367da5" stroke-width="1.5" stroke-linecap="round" stroke-linejoin="round"/></g></g><g id="1m9mvb3030"><g transform="translate(885 500)"><path d="M 15,30 L 15,30 L 15.000000000000002,30 A 15 15 0 0 1 0 15.000000000000002 L 0,15 L 0,15.000000000000002 A 15 15 0 0 1 15.000000000000002 0 L 55,0 L 55,0 L 55,0 A 15 15 0 0 1 70 15 L 70,15 L 70,15 A 15 15 0 0 1 55 30 L 15,30 Z" fill="rgba(249,104,114,1)" stroke="#e85861" stroke-width="1" stroke-linecap="round" stroke-linejoin="round"/></g><g transform="translate(908, 505.5) rotate(0, 12, 9.5)" width="24" height="19"><text text-decoration="none" x="0.5" fill="rgb(255, 255, 255)" font-size="10pt" font-family="Lato"  y="17">End</text><text text-decoration="none" x="23.5" fill="#4b4b4b" font-size="10pt" font-family="noto_regular"  y="17"></text></g></g><g id="2lpev2fyn8"><mask id="1f418" x="647" y="47" width="286" height="466" maskUnits="userSpaceOnUse"><rect x="647" y="47" width="286" height="466" fill="white" /><rect x="907" y="137.5" width="26" height="25" fill="black" /></mask><g mask="url(#1f418)"><path d="M 660,60 L 920,60 L 920,500" fill="none" stroke="#367da5" stroke-width="1.5" stroke-linecap="round" stroke-linejoin="round"/><path d="M 920,500 L 925.75,491.30434782608694 L 914.25,491.30434782608694 Z" fill="rgb(54,125,165)" stroke="#367da5" stroke-width="1.5" stroke-linecap="round" stroke-linejoin="round"/></g><g transform="translate(910, 140.5)" width="20" height="19"><text text-decoration="none" x="0" fill="rgb(75, 75, 75)" font-size="10pt" font-family="Lato"  y="17">NO</text><text text-decoration="none" x="20" fill="#4b4b4b" font-size="10pt" font-family="noto_regular"  y="17"></text></g></g><g id="2n5bz6zbe8"><g><path d="M 400,60 L 500,60" fill="none" stroke="#367da5" stroke-width="1.5" stroke-linecap="round" stroke-linejoin="round"/><path d="M 500,60 L 491.30434782608694,54.25 L 491.30434782608694,65.75 Z" fill="rgb(54,125,165)" stroke="#367da5" stroke-width="1.5" stroke-linecap="round" stroke-linejoin="round"/></g></g><g id="mpkmtoy8qy"><mask id="650b7" x="567" y="102" width="28.500001192092896" height="86" maskUnits="userSpaceOnUse"><rect x="567" y="102" width="28.500001192092896" height="86" fill="white" /><rect x="566.2500005960464" y="132.5" width="30" height="25" fill="black" /></mask><g mask="url(#650b7)"><path d="M 580,115 L 580,145 L 581.2500005960464,145 L 582.5000011920929,145 L 582.5000011920929,175" fill="none" stroke="#367da5" stroke-width="1.5" stroke-linecap="round" stroke-linejoin="round"/><path d="M 582.5000011920929,175 L 588.2500011920929,166.30434782608697 L 576.7500011920929,166.30434782608697 Z" fill="rgb(54,125,165)" stroke="#367da5" stroke-width="1.5" stroke-linecap="round" stroke-linejoin="round"/></g><g transform="translate(569.2500005960464, 135.5)" width="24" height="19"><text text-decoration="none" x="1.5" fill="rgb(75, 75, 75)" font-size="10pt" font-family="Lato"  y="17">YES</text><text text-decoration="none" x="22.5" fill="#4b4b4b" font-size="10pt" font-family="noto_regular"  y="17"></text></g></g><g id="8vd9mw9mi2"><mask id="5dc36" x="442" y="209.5" width="86" height="28.5" maskUnits="userSpaceOnUse"><rect x="442" y="209.5" width="86" height="28.5" fill="white" /><rect x="472.5" y="211.75" width="26" height="25" fill="black" /></mask><g mask="url(#5dc36)"><path d="M 515,222.5 L 485.5,222.5 L 485.5,223.75 L 485.5,225 L 455,225" fill="none" stroke="#367da5" stroke-width="1.5" stroke-linecap="round" stroke-linejoin="round"/><path d="M 455,225 L 463.69565217391306,230.75 L 463.69565217391306,219.25 Z" fill="rgb(54,125,165)" stroke="#367da5" stroke-width="1.5" stroke-linecap="round" stroke-linejoin="round"/></g><g transform="translate(475.5, 214.75)" width="20" height="19"><text text-decoration="none" x="0" fill="rgb(75, 75, 75)" font-size="10pt" font-family="Lato"  y="17">NO</text><text text-decoration="none" x="20" fill="#4b4b4b" font-size="10pt" font-family="noto_regular"  y="17"></text></g></g><g id="xzwnmf0u6n"><mask id="9c01e" x="569.5" y="257" width="28.5" height="76" maskUnits="userSpaceOnUse"><rect x="569.5" y="257" width="28.5" height="76" fill="white" /><rect x="567.5" y="283.75" width="30" height="25" fill="black" /></mask><g mask="url(#9c01e)"><path d="M 582.5,270 L 582.5,300 L 583.75,300 L 585,300 L 585,320" fill="none" stroke="#367da5" stroke-width="1.5" stroke-linecap="round" stroke-linejoin="round"/><path d="M 585,320 L 590.75,311.30434782608694 L 579.25,311.30434782608694 Z" fill="rgb(54,125,165)" stroke="#367da5" stroke-width="1.5" stroke-linecap="round" stroke-linejoin="round"/></g><g transform="translate(570.5, 286.75)" width="24" height="19"><text text-decoration="none" x="1.5" fill="rgb(75, 75, 75)" font-size="10pt" font-family="Lato"  y="17">YES</text><text text-decoration="none" x="22.5" fill="#4b4b4b" font-size="10pt" font-family="noto_regular"  y="17"></text></g></g><g id="251jszm90d"><g><path d="M 405,250 L 405,380 L 510,380" fill="none" stroke="#367da5" stroke-width="1.5" stroke-linecap="round" stroke-linejoin="round"/><path d="M 510,380 L 501.30434782608694,374.25 L 501.30434782608694,385.75 Z" fill="rgb(54,125,165)" stroke="#367da5" stroke-width="1.5" stroke-linecap="round" stroke-linejoin="round"/></g></g><g id="1p43cm69w6"><mask id="0bf3a" x="647" y="367" width="86" height="26" maskUnits="userSpaceOnUse"><rect x="647" y="367" width="86" height="26" fill="white" /><rect x="677" y="367.5" width="26" height="25" fill="black" /></mask><g mask="url(#0bf3a)"><path d="M 660,380 L 720,380" fill="none" stroke="#367da5" stroke-width="1.5" stroke-linecap="round" stroke-linejoin="round"/><path d="M 720,380 L 711.304347826087,374.25 L 711.304347826087,385.75 Z" fill="rgb(54,125,165)" stroke="#367da5" stroke-width="1.5" stroke-linecap="round" stroke-linejoin="round"/></g><g transform="translate(680, 370.5)" width="20" height="19"><text text-decoration="none" x="0" fill="rgb(75, 75, 75)" font-size="10pt" font-family="Lato"  y="17">NO</text><text text-decoration="none" x="20" fill="#4b4b4b" font-size="10pt" font-family="noto_regular"  y="17"></text></g></g><g id="1e9x86ozf0"><mask id="605e1" x="572" y="427" width="161" height="101" maskUnits="userSpaceOnUse"><rect x="572" y="427" width="161" height="101" fill="white" /><rect x="600" y="502.5" width="30" height="25" fill="black" /></mask><g mask="url(#605e1)"><path d="M 585,440 L 585,515 L 720,515" fill="none" stroke="#367da5" stroke-width="1.5" stroke-linecap="round" stroke-linejoin="round"/><path d="M 720,515 L 711.304347826087,509.25 L 711.304347826087,520.75 Z" fill="rgb(54,125,165)" stroke="#367da5" stroke-width="1.5" stroke-linecap="round" stroke-linejoin="round"/></g><g transform="translate(603, 505.5)" width="24" height="19"><text text-decoration="none" x="1.5" fill="rgb(75, 75, 75)" font-size="10pt" font-family="Lato"  y="17">YES</text><text text-decoration="none" x="22.5" fill="#4b4b4b" font-size="10pt" font-family="noto_regular"  y="17"></text></g></g><g id="6lxzx19lca"><g><path d="M 820,515 L 885,515" fill="none" stroke="#367da5" stroke-width="1.5" stroke-linecap="round" stroke-linejoin="round"/><path d="M 885,515 L 876.304347826087,509.25 L 876.304347826087,520.75 Z" fill="rgb(54,125,165)" stroke="#367da5" stroke-width="1.5" stroke-linecap="round" stroke-linejoin="round"/></g></g></svg>